<mxfile host="Electron" agent="Mozilla/5.0 (Windows NT 10.0; Win64; x64) AppleWebKit/537.36 (KHTML, like Gecko) draw.io/24.7.5 Chrome/126.0.6478.183 Electron/31.3.0 Safari/537.36" version="24.7.5">
  <diagram id="R2lEEEUBdFMjLlhIrx00" name="Page-1">
    <mxGraphModel dx="1900" dy="629" grid="1" gridSize="10" guides="1" tooltips="1" connect="1" arrows="1" fold="1" page="1" pageScale="1" pageWidth="850" pageHeight="1100" background="#999999" math="0" shadow="1" extFonts="Permanent Marker^https://fonts.googleapis.com/css?family=Permanent+Marker">
      <root>
        <mxCell id="0" />
        <mxCell id="1" parent="0" />
        <mxCell id="DTL4FMl5SA0SyeVDVaDu-17" style="rounded=0;orthogonalLoop=1;jettySize=auto;html=1;entryX=0.5;entryY=1;entryDx=0;entryDy=0;labelBackgroundColor=none;strokeColor=#A8201A;fontColor=default;" parent="1" source="DTL4FMl5SA0SyeVDVaDu-15" target="DTL4FMl5SA0SyeVDVaDu-16" edge="1">
          <mxGeometry relative="1" as="geometry" />
        </mxCell>
        <mxCell id="DTL4FMl5SA0SyeVDVaDu-21" style="edgeStyle=none;rounded=0;orthogonalLoop=1;jettySize=auto;html=1;strokeColor=#A8201A;fontColor=#143642;fillColor=#FAE5C7;" parent="1" source="DTL4FMl5SA0SyeVDVaDu-15" target="DTL4FMl5SA0SyeVDVaDu-20" edge="1">
          <mxGeometry relative="1" as="geometry" />
        </mxCell>
        <mxCell id="DTL4FMl5SA0SyeVDVaDu-25" style="edgeStyle=none;rounded=0;orthogonalLoop=1;jettySize=auto;html=1;entryX=0;entryY=1;entryDx=0;entryDy=0;strokeColor=#A8201A;fontColor=#143642;fillColor=#FAE5C7;" parent="1" source="DTL4FMl5SA0SyeVDVaDu-15" target="DTL4FMl5SA0SyeVDVaDu-24" edge="1">
          <mxGeometry relative="1" as="geometry" />
        </mxCell>
        <mxCell id="DTL4FMl5SA0SyeVDVaDu-53" style="edgeStyle=none;rounded=0;orthogonalLoop=1;jettySize=auto;html=1;entryX=0;entryY=0.5;entryDx=0;entryDy=0;strokeColor=#A8201A;fontColor=#143642;fillColor=#FAE5C7;" parent="1" source="DTL4FMl5SA0SyeVDVaDu-15" target="DTL4FMl5SA0SyeVDVaDu-52" edge="1">
          <mxGeometry relative="1" as="geometry" />
        </mxCell>
        <mxCell id="25H_QaQ5d9fI0RC5Xfll-1" style="edgeStyle=orthogonalEdgeStyle;rounded=0;orthogonalLoop=1;jettySize=auto;html=1;" edge="1" parent="1" source="DTL4FMl5SA0SyeVDVaDu-15" target="DTL4FMl5SA0SyeVDVaDu-56">
          <mxGeometry relative="1" as="geometry">
            <mxPoint x="80" y="120" as="targetPoint" />
          </mxGeometry>
        </mxCell>
        <mxCell id="DTL4FMl5SA0SyeVDVaDu-15" value="Match" style="rounded=1;arcSize=10;whiteSpace=wrap;html=1;align=center;labelBackgroundColor=none;fillColor=#FAE5C7;strokeColor=#0F8B8D;fontColor=#143642;" parent="1" vertex="1">
          <mxGeometry x="30" y="170" width="100" height="40" as="geometry" />
        </mxCell>
        <mxCell id="DTL4FMl5SA0SyeVDVaDu-16" value="&lt;u&gt;Id&lt;/u&gt;" style="ellipse;whiteSpace=wrap;html=1;align=center;labelBackgroundColor=none;fillColor=#FAE5C7;strokeColor=#0F8B8D;fontColor=#143642;" parent="1" vertex="1">
          <mxGeometry x="-60" y="70" width="100" height="40" as="geometry" />
        </mxCell>
        <mxCell id="DTL4FMl5SA0SyeVDVaDu-20" value="Stadium" style="ellipse;whiteSpace=wrap;html=1;align=center;strokeColor=#0F8B8D;fontColor=#143642;fillColor=#FAE5C7;" parent="1" vertex="1">
          <mxGeometry x="140" y="60" width="100" height="40" as="geometry" />
        </mxCell>
        <mxCell id="DTL4FMl5SA0SyeVDVaDu-24" value="Date" style="ellipse;whiteSpace=wrap;html=1;align=center;strokeColor=#0F8B8D;fontColor=#143642;fillColor=#FAE5C7;" parent="1" vertex="1">
          <mxGeometry x="200" y="100" width="100" height="40" as="geometry" />
        </mxCell>
        <mxCell id="DTL4FMl5SA0SyeVDVaDu-26" value="NumOfAdu" style="ellipse;whiteSpace=wrap;html=1;align=center;strokeColor=#0F8B8D;fontColor=#143642;fillColor=#FAE5C7;" parent="1" vertex="1">
          <mxGeometry x="-135" y="110" width="100" height="40" as="geometry" />
        </mxCell>
        <mxCell id="DTL4FMl5SA0SyeVDVaDu-27" style="edgeStyle=none;rounded=0;orthogonalLoop=1;jettySize=auto;html=1;entryX=0.948;entryY=0.72;entryDx=0;entryDy=0;entryPerimeter=0;strokeColor=#A8201A;fontColor=#143642;fillColor=#FAE5C7;" parent="1" source="DTL4FMl5SA0SyeVDVaDu-15" target="DTL4FMl5SA0SyeVDVaDu-26" edge="1">
          <mxGeometry relative="1" as="geometry" />
        </mxCell>
        <mxCell id="DTL4FMl5SA0SyeVDVaDu-39" style="edgeStyle=none;rounded=0;orthogonalLoop=1;jettySize=auto;html=1;strokeColor=#A8201A;fontColor=#143642;fillColor=#FAE5C7;" parent="1" source="DTL4FMl5SA0SyeVDVaDu-37" target="DTL4FMl5SA0SyeVDVaDu-38" edge="1">
          <mxGeometry relative="1" as="geometry" />
        </mxCell>
        <mxCell id="DTL4FMl5SA0SyeVDVaDu-43" style="edgeStyle=none;rounded=0;orthogonalLoop=1;jettySize=auto;html=1;entryX=0.5;entryY=1;entryDx=0;entryDy=0;strokeColor=#A8201A;fontColor=#143642;fillColor=#FAE5C7;" parent="1" source="DTL4FMl5SA0SyeVDVaDu-37" target="DTL4FMl5SA0SyeVDVaDu-41" edge="1">
          <mxGeometry relative="1" as="geometry" />
        </mxCell>
        <mxCell id="DTL4FMl5SA0SyeVDVaDu-44" style="edgeStyle=none;rounded=0;orthogonalLoop=1;jettySize=auto;html=1;strokeColor=#A8201A;fontColor=#143642;fillColor=#FAE5C7;" parent="1" source="DTL4FMl5SA0SyeVDVaDu-37" target="DTL4FMl5SA0SyeVDVaDu-40" edge="1">
          <mxGeometry relative="1" as="geometry" />
        </mxCell>
        <mxCell id="DTL4FMl5SA0SyeVDVaDu-47" style="edgeStyle=none;rounded=0;orthogonalLoop=1;jettySize=auto;html=1;entryX=0.5;entryY=1;entryDx=0;entryDy=0;strokeColor=#A8201A;fontColor=#143642;fillColor=#FAE5C7;" parent="1" source="DTL4FMl5SA0SyeVDVaDu-37" target="DTL4FMl5SA0SyeVDVaDu-45" edge="1">
          <mxGeometry relative="1" as="geometry" />
        </mxCell>
        <mxCell id="DTL4FMl5SA0SyeVDVaDu-37" value="Team" style="rounded=1;arcSize=10;whiteSpace=wrap;html=1;align=center;strokeColor=#0F8B8D;fontColor=#143642;fillColor=#FAE5C7;" parent="1" vertex="1">
          <mxGeometry x="-140" y="380" width="100" height="40" as="geometry" />
        </mxCell>
        <mxCell id="DTL4FMl5SA0SyeVDVaDu-38" value="Id" style="ellipse;whiteSpace=wrap;html=1;align=center;fontStyle=4;strokeColor=#0F8B8D;fontColor=#143642;fillColor=#FAE5C7;" parent="1" vertex="1">
          <mxGeometry x="-5" y="430" width="100" height="40" as="geometry" />
        </mxCell>
        <mxCell id="DTL4FMl5SA0SyeVDVaDu-40" value="Name" style="ellipse;whiteSpace=wrap;html=1;align=center;strokeColor=#0F8B8D;fontColor=#143642;fillColor=#FAE5C7;" parent="1" vertex="1">
          <mxGeometry x="-110" y="460" width="100" height="40" as="geometry" />
        </mxCell>
        <mxCell id="DTL4FMl5SA0SyeVDVaDu-41" value="Photo" style="ellipse;whiteSpace=wrap;html=1;align=center;strokeColor=#0F8B8D;fontColor=#143642;fillColor=#FAE5C7;" parent="1" vertex="1">
          <mxGeometry y="378" width="100" height="40" as="geometry" />
        </mxCell>
        <mxCell id="DTL4FMl5SA0SyeVDVaDu-48" style="edgeStyle=none;rounded=0;orthogonalLoop=1;jettySize=auto;html=1;exitX=0.5;exitY=0;exitDx=0;exitDy=0;strokeColor=#A8201A;fontColor=#143642;fillColor=#FAE5C7;shape=link;" parent="1" source="DTL4FMl5SA0SyeVDVaDu-45" target="DTL4FMl5SA0SyeVDVaDu-15" edge="1">
          <mxGeometry relative="1" as="geometry" />
        </mxCell>
        <mxCell id="DTL4FMl5SA0SyeVDVaDu-45" value="Play" style="shape=rhombus;perimeter=rhombusPerimeter;whiteSpace=wrap;html=1;align=center;strokeColor=#0F8B8D;fontColor=#143642;fillColor=#FAE5C7;" parent="1" vertex="1">
          <mxGeometry x="-10" y="280" width="90" height="50" as="geometry" />
        </mxCell>
        <mxCell id="DTL4FMl5SA0SyeVDVaDu-46" style="edgeStyle=none;rounded=0;orthogonalLoop=1;jettySize=auto;html=1;exitX=1;exitY=0.5;exitDx=0;exitDy=0;strokeColor=#A8201A;fontColor=#143642;fillColor=#FAE5C7;" parent="1" source="DTL4FMl5SA0SyeVDVaDu-45" target="DTL4FMl5SA0SyeVDVaDu-45" edge="1">
          <mxGeometry relative="1" as="geometry" />
        </mxCell>
        <mxCell id="DTL4FMl5SA0SyeVDVaDu-49" value="&lt;b&gt;M&lt;/b&gt;" style="text;html=1;align=center;verticalAlign=middle;resizable=0;points=[];autosize=1;strokeColor=none;fillColor=none;fontColor=#143642;" parent="1" vertex="1">
          <mxGeometry x="30" y="210" width="30" height="30" as="geometry" />
        </mxCell>
        <mxCell id="DTL4FMl5SA0SyeVDVaDu-50" value="&lt;b&gt;M&lt;/b&gt;" style="text;html=1;align=center;verticalAlign=middle;resizable=0;points=[];autosize=1;strokeColor=none;fillColor=none;fontColor=#143642;" parent="1" vertex="1">
          <mxGeometry x="-65" y="348" width="30" height="30" as="geometry" />
        </mxCell>
        <mxCell id="DTL4FMl5SA0SyeVDVaDu-55" style="edgeStyle=none;rounded=0;orthogonalLoop=1;jettySize=auto;html=1;entryX=1;entryY=0;entryDx=0;entryDy=0;strokeColor=#A8201A;fontColor=#143642;fillColor=#FAE5C7;" parent="1" source="DTL4FMl5SA0SyeVDVaDu-52" target="DTL4FMl5SA0SyeVDVaDu-54" edge="1">
          <mxGeometry relative="1" as="geometry" />
        </mxCell>
        <mxCell id="DTL4FMl5SA0SyeVDVaDu-52" value="Location" style="ellipse;whiteSpace=wrap;html=1;align=center;strokeColor=#0F8B8D;fontColor=#143642;fillColor=#FAE5C7;" parent="1" vertex="1">
          <mxGeometry x="180" y="170" width="100" height="40" as="geometry" />
        </mxCell>
        <mxCell id="DTL4FMl5SA0SyeVDVaDu-54" value="Governate" style="ellipse;whiteSpace=wrap;html=1;align=center;strokeColor=#0F8B8D;fontColor=#143642;fillColor=#FAE5C7;" parent="1" vertex="1">
          <mxGeometry x="280" y="140" width="100" height="40" as="geometry" />
        </mxCell>
        <mxCell id="DTL4FMl5SA0SyeVDVaDu-56" value="Stage" style="ellipse;whiteSpace=wrap;html=1;align=center;strokeColor=#0F8B8D;fontColor=#143642;fillColor=#FAE5C7;" parent="1" vertex="1">
          <mxGeometry x="30" y="40" width="100" height="40" as="geometry" />
        </mxCell>
        <mxCell id="DTL4FMl5SA0SyeVDVaDu-66" style="edgeStyle=none;rounded=0;orthogonalLoop=1;jettySize=auto;html=1;strokeColor=#A8201A;fontColor=#143642;fillColor=#FAE5C7;" parent="1" source="DTL4FMl5SA0SyeVDVaDu-60" target="DTL4FMl5SA0SyeVDVaDu-65" edge="1">
          <mxGeometry relative="1" as="geometry" />
        </mxCell>
        <mxCell id="DTL4FMl5SA0SyeVDVaDu-67" style="edgeStyle=none;rounded=0;orthogonalLoop=1;jettySize=auto;html=1;strokeColor=#A8201A;fontColor=#143642;fillColor=#FAE5C7;" parent="1" source="DTL4FMl5SA0SyeVDVaDu-60" target="DTL4FMl5SA0SyeVDVaDu-61" edge="1">
          <mxGeometry relative="1" as="geometry" />
        </mxCell>
        <mxCell id="DTL4FMl5SA0SyeVDVaDu-68" style="edgeStyle=none;rounded=0;orthogonalLoop=1;jettySize=auto;html=1;entryX=1;entryY=0;entryDx=0;entryDy=0;strokeColor=#A8201A;fontColor=#143642;fillColor=#FAE5C7;" parent="1" source="DTL4FMl5SA0SyeVDVaDu-60" target="DTL4FMl5SA0SyeVDVaDu-63" edge="1">
          <mxGeometry relative="1" as="geometry" />
        </mxCell>
        <mxCell id="DTL4FMl5SA0SyeVDVaDu-82" style="edgeStyle=none;rounded=0;orthogonalLoop=1;jettySize=auto;html=1;entryX=0.5;entryY=1;entryDx=0;entryDy=0;strokeColor=#A8201A;fontColor=#143642;fillColor=#FAE5C7;" parent="1" source="DTL4FMl5SA0SyeVDVaDu-60" target="DTL4FMl5SA0SyeVDVaDu-81" edge="1">
          <mxGeometry relative="1" as="geometry" />
        </mxCell>
        <mxCell id="DTL4FMl5SA0SyeVDVaDu-60" value="Category" style="rounded=1;arcSize=10;whiteSpace=wrap;html=1;align=center;strokeColor=#0F8B8D;fontColor=#143642;fillColor=#FAE5C7;" parent="1" vertex="1">
          <mxGeometry x="705" y="420" width="100" height="40" as="geometry" />
        </mxCell>
        <mxCell id="DTL4FMl5SA0SyeVDVaDu-61" value="Id" style="ellipse;whiteSpace=wrap;html=1;align=center;fontStyle=4;strokeColor=#0F8B8D;fontColor=#143642;fillColor=#FAE5C7;" parent="1" vertex="1">
          <mxGeometry x="755" y="490" width="100" height="40" as="geometry" />
        </mxCell>
        <mxCell id="DTL4FMl5SA0SyeVDVaDu-63" value="Name" style="ellipse;whiteSpace=wrap;html=1;align=center;strokeColor=#0F8B8D;fontColor=#143642;fillColor=#FAE5C7;" parent="1" vertex="1">
          <mxGeometry x="660" y="550" width="100" height="40" as="geometry" />
        </mxCell>
        <mxCell id="DTL4FMl5SA0SyeVDVaDu-65" value="Photo" style="ellipse;whiteSpace=wrap;html=1;align=center;strokeColor=#0F8B8D;fontColor=#143642;fillColor=#FAE5C7;" parent="1" vertex="1">
          <mxGeometry x="640" y="500" width="100" height="40" as="geometry" />
        </mxCell>
        <mxCell id="DTL4FMl5SA0SyeVDVaDu-72" style="edgeStyle=none;rounded=0;orthogonalLoop=1;jettySize=auto;html=1;strokeColor=#A8201A;fontColor=#143642;fillColor=#FAE5C7;" parent="1" source="DTL4FMl5SA0SyeVDVaDu-70" target="DTL4FMl5SA0SyeVDVaDu-71" edge="1">
          <mxGeometry relative="1" as="geometry" />
        </mxCell>
        <mxCell id="DTL4FMl5SA0SyeVDVaDu-75" style="edgeStyle=none;rounded=0;orthogonalLoop=1;jettySize=auto;html=1;entryX=0;entryY=1;entryDx=0;entryDy=0;strokeColor=#A8201A;fontColor=#143642;fillColor=#FAE5C7;" parent="1" source="DTL4FMl5SA0SyeVDVaDu-70" target="DTL4FMl5SA0SyeVDVaDu-74" edge="1">
          <mxGeometry relative="1" as="geometry" />
        </mxCell>
        <mxCell id="DTL4FMl5SA0SyeVDVaDu-78" style="edgeStyle=none;rounded=0;orthogonalLoop=1;jettySize=auto;html=1;entryX=1;entryY=0.5;entryDx=0;entryDy=0;strokeColor=#A8201A;fontColor=#143642;fillColor=#FAE5C7;" parent="1" source="DTL4FMl5SA0SyeVDVaDu-70" target="DTL4FMl5SA0SyeVDVaDu-77" edge="1">
          <mxGeometry relative="1" as="geometry" />
        </mxCell>
        <mxCell id="DTL4FMl5SA0SyeVDVaDu-80" style="edgeStyle=none;rounded=0;orthogonalLoop=1;jettySize=auto;html=1;strokeColor=#A8201A;fontColor=#143642;fillColor=#FAE5C7;" parent="1" source="DTL4FMl5SA0SyeVDVaDu-70" target="DTL4FMl5SA0SyeVDVaDu-79" edge="1">
          <mxGeometry relative="1" as="geometry" />
        </mxCell>
        <mxCell id="DTL4FMl5SA0SyeVDVaDu-118" style="rounded=0;orthogonalLoop=1;jettySize=auto;elbow=vertical;html=1;strokeColor=#A8201A;fontColor=#143642;fillColor=#FAE5C7;" parent="1" source="DTL4FMl5SA0SyeVDVaDu-70" target="DTL4FMl5SA0SyeVDVaDu-117" edge="1">
          <mxGeometry relative="1" as="geometry" />
        </mxCell>
        <mxCell id="DTL4FMl5SA0SyeVDVaDu-120" style="rounded=0;orthogonalLoop=1;jettySize=auto;elbow=vertical;html=1;strokeColor=#A8201A;fontColor=#143642;fillColor=#FAE5C7;" parent="1" source="DTL4FMl5SA0SyeVDVaDu-70" target="DTL4FMl5SA0SyeVDVaDu-119" edge="1">
          <mxGeometry relative="1" as="geometry" />
        </mxCell>
        <mxCell id="DTL4FMl5SA0SyeVDVaDu-70" value="Event" style="rounded=1;arcSize=10;whiteSpace=wrap;html=1;align=center;strokeColor=#0F8B8D;fontColor=#143642;fillColor=#FAE5C7;" parent="1" vertex="1">
          <mxGeometry x="465" y="290" width="100" height="40" as="geometry" />
        </mxCell>
        <mxCell id="DTL4FMl5SA0SyeVDVaDu-71" value="Id" style="ellipse;whiteSpace=wrap;html=1;align=center;fontStyle=4;strokeColor=#0F8B8D;fontColor=#143642;fillColor=#FAE5C7;" parent="1" vertex="1">
          <mxGeometry x="370" y="240" width="100" height="40" as="geometry" />
        </mxCell>
        <mxCell id="DTL4FMl5SA0SyeVDVaDu-73" value="Name" style="ellipse;whiteSpace=wrap;html=1;align=center;strokeColor=#0F8B8D;fontColor=#143642;fillColor=#FAE5C7;" parent="1" vertex="1">
          <mxGeometry x="495" y="130" width="100" height="40" as="geometry" />
        </mxCell>
        <mxCell id="DTL4FMl5SA0SyeVDVaDu-74" value="No of shows" style="ellipse;whiteSpace=wrap;html=1;align=center;strokeColor=#0F8B8D;fontColor=#143642;fillColor=#FAE5C7;" parent="1" vertex="1">
          <mxGeometry x="600" y="260" width="100" height="40" as="geometry" />
        </mxCell>
        <mxCell id="DTL4FMl5SA0SyeVDVaDu-76" style="edgeStyle=none;rounded=0;orthogonalLoop=1;jettySize=auto;html=1;entryX=0.32;entryY=1.01;entryDx=0;entryDy=0;entryPerimeter=0;strokeColor=#A8201A;fontColor=#143642;fillColor=#FAE5C7;" parent="1" source="DTL4FMl5SA0SyeVDVaDu-70" target="DTL4FMl5SA0SyeVDVaDu-73" edge="1">
          <mxGeometry relative="1" as="geometry" />
        </mxCell>
        <mxCell id="DTL4FMl5SA0SyeVDVaDu-77" value="Date" style="ellipse;whiteSpace=wrap;html=1;align=center;strokeColor=#0F8B8D;fontColor=#143642;fillColor=#FAE5C7;" parent="1" vertex="1">
          <mxGeometry x="315" y="290" width="100" height="40" as="geometry" />
        </mxCell>
        <mxCell id="DTL4FMl5SA0SyeVDVaDu-79" value="Photo" style="ellipse;whiteSpace=wrap;html=1;align=center;strokeColor=#0F8B8D;fontColor=#143642;fillColor=#FAE5C7;" parent="1" vertex="1">
          <mxGeometry x="415" y="190" width="100" height="40" as="geometry" />
        </mxCell>
        <mxCell id="DTL4FMl5SA0SyeVDVaDu-83" style="edgeStyle=none;rounded=0;orthogonalLoop=1;jettySize=auto;html=1;entryX=0.75;entryY=1;entryDx=0;entryDy=0;strokeColor=#A8201A;fontColor=#143642;fillColor=#FAE5C7;shape=link;" parent="1" source="DTL4FMl5SA0SyeVDVaDu-81" target="DTL4FMl5SA0SyeVDVaDu-70" edge="1">
          <mxGeometry relative="1" as="geometry" />
        </mxCell>
        <mxCell id="DTL4FMl5SA0SyeVDVaDu-81" value="Has" style="shape=rhombus;perimeter=rhombusPerimeter;whiteSpace=wrap;html=1;align=center;strokeColor=#0F8B8D;fontColor=#143642;fillColor=#FAE5C7;" parent="1" vertex="1">
          <mxGeometry x="600" y="348" width="90" height="50" as="geometry" />
        </mxCell>
        <mxCell id="DTL4FMl5SA0SyeVDVaDu-84" value="&lt;b&gt;1&lt;/b&gt;" style="text;html=1;align=center;verticalAlign=middle;resizable=0;points=[];autosize=1;strokeColor=none;fillColor=none;fontColor=#143642;" parent="1" vertex="1">
          <mxGeometry x="705" y="398" width="30" height="30" as="geometry" />
        </mxCell>
        <mxCell id="DTL4FMl5SA0SyeVDVaDu-85" value="&lt;b&gt;M&lt;/b&gt;" style="text;html=1;align=center;verticalAlign=middle;resizable=0;points=[];autosize=1;strokeColor=none;fillColor=none;fontColor=#143642;" parent="1" vertex="1">
          <mxGeometry x="560" y="318" width="30" height="30" as="geometry" />
        </mxCell>
        <mxCell id="DTL4FMl5SA0SyeVDVaDu-89" style="edgeStyle=none;rounded=0;orthogonalLoop=1;jettySize=auto;html=1;strokeColor=#A8201A;fontColor=#143642;fillColor=#FAE5C7;" parent="1" source="DTL4FMl5SA0SyeVDVaDu-86" target="DTL4FMl5SA0SyeVDVaDu-88" edge="1">
          <mxGeometry relative="1" as="geometry" />
        </mxCell>
        <mxCell id="DTL4FMl5SA0SyeVDVaDu-104" style="edgeStyle=elbowEdgeStyle;rounded=0;orthogonalLoop=1;jettySize=auto;elbow=vertical;html=1;strokeColor=#A8201A;fontColor=#143642;fillColor=#FAE5C7;" parent="1" source="DTL4FMl5SA0SyeVDVaDu-86" target="DTL4FMl5SA0SyeVDVaDu-103" edge="1">
          <mxGeometry relative="1" as="geometry" />
        </mxCell>
        <mxCell id="DTL4FMl5SA0SyeVDVaDu-109" style="edgeStyle=elbowEdgeStyle;rounded=0;orthogonalLoop=1;jettySize=auto;elbow=vertical;html=1;entryX=0.5;entryY=1;entryDx=0;entryDy=0;strokeColor=#A8201A;fontColor=#143642;fillColor=#FAE5C7;" parent="1" source="DTL4FMl5SA0SyeVDVaDu-86" target="DTL4FMl5SA0SyeVDVaDu-108" edge="1">
          <mxGeometry relative="1" as="geometry" />
        </mxCell>
        <mxCell id="DTL4FMl5SA0SyeVDVaDu-112" style="edgeStyle=elbowEdgeStyle;rounded=0;orthogonalLoop=1;jettySize=auto;elbow=vertical;html=1;strokeColor=#A8201A;fontColor=#143642;fillColor=#FAE5C7;" parent="1" source="DTL4FMl5SA0SyeVDVaDu-86" target="DTL4FMl5SA0SyeVDVaDu-111" edge="1">
          <mxGeometry relative="1" as="geometry">
            <mxPoint x="270" y="447.5" as="sourcePoint" />
            <mxPoint x="155" y="372.5" as="targetPoint" />
          </mxGeometry>
        </mxCell>
        <mxCell id="DTL4FMl5SA0SyeVDVaDu-86" value="Ticket" style="rounded=1;arcSize=10;whiteSpace=wrap;html=1;align=center;strokeColor=#0F8B8D;fontColor=#143642;fillColor=#FAE5C7;" parent="1" vertex="1">
          <mxGeometry x="230" y="450" width="100" height="40" as="geometry" />
        </mxCell>
        <mxCell id="DTL4FMl5SA0SyeVDVaDu-88" value="id" style="ellipse;whiteSpace=wrap;html=1;align=center;fontStyle=4;strokeColor=#0F8B8D;fontColor=#143642;fillColor=#FAE5C7;" parent="1" vertex="1">
          <mxGeometry x="350" y="490" width="100" height="40" as="geometry" />
        </mxCell>
        <mxCell id="DTL4FMl5SA0SyeVDVaDu-93" style="edgeStyle=none;rounded=0;orthogonalLoop=1;jettySize=auto;html=1;strokeColor=#A8201A;fontColor=#143642;fillColor=#FAE5C7;" parent="1" source="DTL4FMl5SA0SyeVDVaDu-91" target="DTL4FMl5SA0SyeVDVaDu-92" edge="1">
          <mxGeometry relative="1" as="geometry" />
        </mxCell>
        <mxCell id="DTL4FMl5SA0SyeVDVaDu-99" style="edgeStyle=elbowEdgeStyle;rounded=0;orthogonalLoop=1;jettySize=auto;elbow=vertical;html=1;entryX=0.5;entryY=1;entryDx=0;entryDy=0;strokeColor=#A8201A;fontColor=#143642;fillColor=#FAE5C7;" parent="1" source="DTL4FMl5SA0SyeVDVaDu-91" target="DTL4FMl5SA0SyeVDVaDu-94" edge="1">
          <mxGeometry relative="1" as="geometry" />
        </mxCell>
        <mxCell id="DTL4FMl5SA0SyeVDVaDu-91" value="User" style="whiteSpace=wrap;html=1;align=center;strokeColor=#0F8B8D;fontColor=#143642;fillColor=#FAE5C7;" parent="1" vertex="1">
          <mxGeometry x="80" y="620" width="100" height="40" as="geometry" />
        </mxCell>
        <mxCell id="DTL4FMl5SA0SyeVDVaDu-92" value="Id" style="ellipse;whiteSpace=wrap;html=1;align=center;fontStyle=4;strokeColor=#0F8B8D;fontColor=#143642;fillColor=#FAE5C7;" parent="1" vertex="1">
          <mxGeometry x="-60" y="590" width="100" height="40" as="geometry" />
        </mxCell>
        <mxCell id="DTL4FMl5SA0SyeVDVaDu-98" style="edgeStyle=elbowEdgeStyle;rounded=0;orthogonalLoop=1;jettySize=auto;elbow=vertical;html=1;entryX=0.5;entryY=1;entryDx=0;entryDy=0;strokeColor=#A8201A;fontColor=#143642;fillColor=#FAE5C7;shape=link;" parent="1" source="DTL4FMl5SA0SyeVDVaDu-94" target="DTL4FMl5SA0SyeVDVaDu-86" edge="1">
          <mxGeometry relative="1" as="geometry" />
        </mxCell>
        <mxCell id="DTL4FMl5SA0SyeVDVaDu-107" style="edgeStyle=elbowEdgeStyle;rounded=0;orthogonalLoop=1;jettySize=auto;elbow=vertical;html=1;strokeColor=#A8201A;fontColor=#143642;fillColor=#FAE5C7;" parent="1" source="DTL4FMl5SA0SyeVDVaDu-94" target="DTL4FMl5SA0SyeVDVaDu-106" edge="1">
          <mxGeometry relative="1" as="geometry" />
        </mxCell>
        <mxCell id="DTL4FMl5SA0SyeVDVaDu-94" value="book" style="shape=rhombus;perimeter=rhombusPerimeter;whiteSpace=wrap;html=1;align=center;strokeColor=#0F8B8D;fontColor=#143642;fillColor=#FAE5C7;" parent="1" vertex="1">
          <mxGeometry x="150" y="530" width="90" height="60" as="geometry" />
        </mxCell>
        <mxCell id="DTL4FMl5SA0SyeVDVaDu-100" value="&lt;b&gt;1&lt;/b&gt;" style="text;html=1;align=center;verticalAlign=middle;resizable=0;points=[];autosize=1;strokeColor=none;fillColor=none;fontColor=#143642;" parent="1" vertex="1">
          <mxGeometry x="100" y="590" width="30" height="30" as="geometry" />
        </mxCell>
        <mxCell id="DTL4FMl5SA0SyeVDVaDu-102" value="&lt;b&gt;M&lt;/b&gt;" style="text;html=1;align=center;verticalAlign=middle;resizable=0;points=[];autosize=1;strokeColor=none;fillColor=none;fontColor=#143642;" parent="1" vertex="1">
          <mxGeometry x="285" y="490" width="30" height="30" as="geometry" />
        </mxCell>
        <mxCell id="DTL4FMl5SA0SyeVDVaDu-103" value="Type" style="ellipse;shape=doubleEllipse;margin=3;whiteSpace=wrap;html=1;align=center;strokeColor=#0F8B8D;fontColor=#143642;fillColor=#FAE5C7;" parent="1" vertex="1">
          <mxGeometry x="100" y="460" width="100" height="40" as="geometry" />
        </mxCell>
        <mxCell id="DTL4FMl5SA0SyeVDVaDu-106" value="Price" style="ellipse;whiteSpace=wrap;html=1;align=center;strokeColor=#0F8B8D;fontColor=#143642;fillColor=#FAE5C7;" parent="1" vertex="1">
          <mxGeometry x="270" y="540" width="100" height="40" as="geometry" />
        </mxCell>
        <mxCell id="DTL4FMl5SA0SyeVDVaDu-110" style="edgeStyle=elbowEdgeStyle;rounded=0;orthogonalLoop=1;jettySize=auto;elbow=vertical;html=1;strokeColor=#A8201A;fontColor=#143642;fillColor=#FAE5C7;" parent="1" source="DTL4FMl5SA0SyeVDVaDu-108" target="DTL4FMl5SA0SyeVDVaDu-70" edge="1">
          <mxGeometry relative="1" as="geometry" />
        </mxCell>
        <mxCell id="DTL4FMl5SA0SyeVDVaDu-108" value="Has" style="shape=rhombus;perimeter=rhombusPerimeter;whiteSpace=wrap;html=1;align=center;strokeColor=#0F8B8D;fontColor=#143642;fillColor=#FAE5C7;" parent="1" vertex="1">
          <mxGeometry x="400" y="370" width="90" height="50" as="geometry" />
        </mxCell>
        <mxCell id="DTL4FMl5SA0SyeVDVaDu-113" style="edgeStyle=elbowEdgeStyle;rounded=0;orthogonalLoop=1;jettySize=auto;elbow=vertical;html=1;entryX=0.75;entryY=1;entryDx=0;entryDy=0;strokeColor=#A8201A;fontColor=#143642;fillColor=#FAE5C7;" parent="1" source="DTL4FMl5SA0SyeVDVaDu-111" target="DTL4FMl5SA0SyeVDVaDu-15" edge="1">
          <mxGeometry relative="1" as="geometry" />
        </mxCell>
        <mxCell id="DTL4FMl5SA0SyeVDVaDu-111" value="Has" style="shape=rhombus;perimeter=rhombusPerimeter;whiteSpace=wrap;html=1;align=center;strokeColor=#0F8B8D;fontColor=#143642;fillColor=#FAE5C7;" parent="1" vertex="1">
          <mxGeometry x="110" y="308" width="90" height="50" as="geometry" />
        </mxCell>
        <mxCell id="DTL4FMl5SA0SyeVDVaDu-114" value="&lt;b&gt;1&lt;/b&gt;" style="text;html=1;align=center;verticalAlign=middle;resizable=0;points=[];autosize=1;strokeColor=none;fillColor=none;fontColor=#143642;" parent="1" vertex="1">
          <mxGeometry x="285" y="410" width="30" height="30" as="geometry" />
        </mxCell>
        <mxCell id="DTL4FMl5SA0SyeVDVaDu-115" value="&lt;b&gt;1&lt;/b&gt;" style="text;html=1;align=center;verticalAlign=middle;resizable=0;points=[];autosize=1;strokeColor=none;fillColor=none;fontColor=#143642;" parent="1" vertex="1">
          <mxGeometry x="520" y="335" width="30" height="30" as="geometry" />
        </mxCell>
        <mxCell id="DTL4FMl5SA0SyeVDVaDu-116" value="&lt;b&gt;1&lt;/b&gt;" style="text;html=1;align=center;verticalAlign=middle;resizable=0;points=[];autosize=1;strokeColor=none;fillColor=none;fontColor=#143642;" parent="1" vertex="1">
          <mxGeometry x="110" y="210" width="30" height="30" as="geometry" />
        </mxCell>
        <mxCell id="DTL4FMl5SA0SyeVDVaDu-117" value="NumOfAudienc" style="ellipse;whiteSpace=wrap;html=1;align=center;strokeColor=#0F8B8D;fontColor=#143642;fillColor=#FAE5C7;" parent="1" vertex="1">
          <mxGeometry x="605" y="205" width="100" height="40" as="geometry" />
        </mxCell>
        <mxCell id="DTL4FMl5SA0SyeVDVaDu-119" value="Location" style="ellipse;whiteSpace=wrap;html=1;align=center;strokeColor=#0F8B8D;fontColor=#143642;fillColor=#FAE5C7;" parent="1" vertex="1">
          <mxGeometry x="595" y="140" width="100" height="40" as="geometry" />
        </mxCell>
        <mxCell id="DTL4FMl5SA0SyeVDVaDu-121" style="edgeStyle=none;rounded=0;orthogonalLoop=1;jettySize=auto;html=1;exitX=0.5;exitY=1;exitDx=0;exitDy=0;strokeColor=#A8201A;fontColor=#143642;elbow=vertical;fillColor=#FAE5C7;" parent="1" source="DTL4FMl5SA0SyeVDVaDu-73" target="DTL4FMl5SA0SyeVDVaDu-73" edge="1">
          <mxGeometry relative="1" as="geometry" />
        </mxCell>
        <mxCell id="c1lgLrhRSNeZP-fGpuz5-4" style="edgeStyle=orthogonalEdgeStyle;rounded=0;orthogonalLoop=1;jettySize=auto;html=1;entryX=0.5;entryY=1;entryDx=0;entryDy=0;" parent="1" source="c1lgLrhRSNeZP-fGpuz5-1" target="c1lgLrhRSNeZP-fGpuz5-3" edge="1">
          <mxGeometry relative="1" as="geometry" />
        </mxCell>
        <mxCell id="c1lgLrhRSNeZP-fGpuz5-5" style="edgeStyle=orthogonalEdgeStyle;rounded=0;orthogonalLoop=1;jettySize=auto;html=1;entryX=0.5;entryY=1;entryDx=0;entryDy=0;" parent="1" source="c1lgLrhRSNeZP-fGpuz5-1" target="c1lgLrhRSNeZP-fGpuz5-2" edge="1">
          <mxGeometry relative="1" as="geometry" />
        </mxCell>
        <mxCell id="25H_QaQ5d9fI0RC5Xfll-3" style="edgeStyle=orthogonalEdgeStyle;rounded=0;orthogonalLoop=1;jettySize=auto;html=1;" edge="1" parent="1" source="c1lgLrhRSNeZP-fGpuz5-1" target="25H_QaQ5d9fI0RC5Xfll-2">
          <mxGeometry relative="1" as="geometry" />
        </mxCell>
        <mxCell id="c1lgLrhRSNeZP-fGpuz5-1" value="Tournament" style="rounded=1;arcSize=10;whiteSpace=wrap;html=1;align=center;labelBackgroundColor=none;fillColor=#FAE5C7;strokeColor=#0F8B8D;fontColor=#143642;" parent="1" vertex="1">
          <mxGeometry x="-430" y="180" width="100" height="40" as="geometry" />
        </mxCell>
        <mxCell id="c1lgLrhRSNeZP-fGpuz5-2" value="&lt;u&gt;Id&lt;/u&gt;" style="ellipse;whiteSpace=wrap;html=1;align=center;labelBackgroundColor=none;fillColor=#FAE5C7;strokeColor=#0F8B8D;fontColor=#143642;" parent="1" vertex="1">
          <mxGeometry x="-550" y="120" width="100" height="40" as="geometry" />
        </mxCell>
        <mxCell id="c1lgLrhRSNeZP-fGpuz5-3" value="Name" style="ellipse;whiteSpace=wrap;html=1;align=center;strokeColor=#0F8B8D;fontColor=#143642;fillColor=#FAE5C7;" parent="1" vertex="1">
          <mxGeometry x="-430" y="110" width="100" height="40" as="geometry" />
        </mxCell>
        <mxCell id="c1lgLrhRSNeZP-fGpuz5-8" style="edgeStyle=orthogonalEdgeStyle;rounded=0;orthogonalLoop=1;jettySize=auto;html=1;shape=link;" parent="1" source="c1lgLrhRSNeZP-fGpuz5-6" target="DTL4FMl5SA0SyeVDVaDu-15" edge="1">
          <mxGeometry relative="1" as="geometry">
            <Array as="points">
              <mxPoint x="-20" y="235" />
              <mxPoint x="-20" y="190" />
            </Array>
          </mxGeometry>
        </mxCell>
        <mxCell id="c1lgLrhRSNeZP-fGpuz5-6" value="has" style="shape=rhombus;perimeter=rhombusPerimeter;whiteSpace=wrap;html=1;align=center;strokeColor=#0F8B8D;fontColor=#143642;fillColor=#FAE5C7;" parent="1" vertex="1">
          <mxGeometry x="-250" y="210" width="90" height="50" as="geometry" />
        </mxCell>
        <mxCell id="c1lgLrhRSNeZP-fGpuz5-7" style="edgeStyle=orthogonalEdgeStyle;rounded=0;orthogonalLoop=1;jettySize=auto;html=1;entryX=0.096;entryY=0.544;entryDx=0;entryDy=0;entryPerimeter=0;" parent="1" source="c1lgLrhRSNeZP-fGpuz5-1" target="c1lgLrhRSNeZP-fGpuz5-6" edge="1">
          <mxGeometry relative="1" as="geometry" />
        </mxCell>
        <mxCell id="c1lgLrhRSNeZP-fGpuz5-9" value="&lt;b&gt;1&lt;/b&gt;" style="text;html=1;align=center;verticalAlign=middle;resizable=0;points=[];autosize=1;strokeColor=none;fillColor=none;" parent="1" vertex="1">
          <mxGeometry x="-335" y="178" width="30" height="30" as="geometry" />
        </mxCell>
        <mxCell id="c1lgLrhRSNeZP-fGpuz5-10" value="&lt;b&gt;M&lt;/b&gt;" style="text;html=1;align=center;verticalAlign=middle;resizable=0;points=[];autosize=1;strokeColor=none;fillColor=none;fontColor=#143642;" parent="1" vertex="1">
          <mxGeometry y="190" width="30" height="30" as="geometry" />
        </mxCell>
        <mxCell id="c1lgLrhRSNeZP-fGpuz5-12" style="edgeStyle=orthogonalEdgeStyle;rounded=0;orthogonalLoop=1;jettySize=auto;html=1;exitX=0.5;exitY=1;exitDx=0;exitDy=0;" parent="1" source="DTL4FMl5SA0SyeVDVaDu-56" target="DTL4FMl5SA0SyeVDVaDu-56" edge="1">
          <mxGeometry relative="1" as="geometry" />
        </mxCell>
        <mxCell id="25H_QaQ5d9fI0RC5Xfll-4" style="edgeStyle=orthogonalEdgeStyle;rounded=0;orthogonalLoop=1;jettySize=auto;html=1;" edge="1" parent="1" source="25H_QaQ5d9fI0RC5Xfll-2" target="DTL4FMl5SA0SyeVDVaDu-37">
          <mxGeometry relative="1" as="geometry" />
        </mxCell>
        <mxCell id="25H_QaQ5d9fI0RC5Xfll-2" value="has" style="shape=rhombus;perimeter=rhombusPerimeter;whiteSpace=wrap;html=1;align=center;strokeColor=#0F8B8D;fontColor=#143642;fillColor=#FAE5C7;" vertex="1" parent="1">
          <mxGeometry x="-360" y="360" width="90" height="50" as="geometry" />
        </mxCell>
        <mxCell id="25H_QaQ5d9fI0RC5Xfll-5" value="&lt;b&gt;M&lt;/b&gt;" style="text;html=1;align=center;verticalAlign=middle;resizable=0;points=[];autosize=1;strokeColor=none;fillColor=none;fontColor=#143642;" vertex="1" parent="1">
          <mxGeometry x="-370" y="220" width="30" height="30" as="geometry" />
        </mxCell>
        <mxCell id="25H_QaQ5d9fI0RC5Xfll-6" value="&lt;b&gt;M&lt;/b&gt;" style="text;html=1;align=center;verticalAlign=middle;resizable=0;points=[];autosize=1;strokeColor=none;fillColor=none;fontColor=#143642;" vertex="1" parent="1">
          <mxGeometry x="-180" y="370" width="30" height="30" as="geometry" />
        </mxCell>
      </root>
    </mxGraphModel>
  </diagram>
</mxfile>
